<?xml version="1.0" encoding="UTF-8"?>
<svg width="24px" height="24px" viewBox="0 0 24 24" version="1.1" xmlns="http://www.w3.org/2000/svg" xmlns:xlink="http://www.w3.org/1999/xlink">
    <title>85FFC790-5039-4BD9-9C85-0015588F5A8B</title>
    <g id="Pages" stroke="none" stroke-width="1" fill="none" fill-rule="evenodd">
        <g id="Flex-List-Copy" transform="translate(-924.000000, -481.000000)">
            <rect fill="#FFFFFF" x="0" y="0" width="1440" height="5937.97848"></rect>
            <g id="Group-45" transform="translate(359.000000, 447.000000)" fill="#04142C">
                <g id="Group-9" transform="translate(0.000000, 25.000000)">
                    <g id="Group-8" transform="translate(565.000000, 1.000000)">
                        <g id="Icon-/-Share" transform="translate(0.000000, 8.000000)">
                            <path d="M16.3750352,18.6670008 C15.6504209,18.6670008 15.0622709,18.0701013 15.0622709,17.3334288 C15.0622709,16.5973291 15.6504209,16.0004296 16.3750352,16.0004296 C17.0996496,16.0004296 17.6877996,16.5973291 17.6877996,17.3334288 C17.6877996,18.0701013 17.0996496,18.6670008 16.3750352,18.6670008 M7.62496476,13.3332856 C6.89978652,13.3332856 6.31220043,12.7363861 6.31220043,12.0002864 C6.31220043,11.2641867 6.89978652,10.6667144 7.62496476,10.6667144 C8.34957909,10.6667144 8.93772909,11.2641867 8.93772909,12.0002864 C8.93772909,12.7363861 8.34957909,13.3332856 7.62496476,13.3332856 M16.3750352,5.33357202 C17.0996496,5.33357202 17.6877996,5.93104436 17.6877996,6.66714403 C17.6877996,7.40324371 17.0996496,8.00014321 16.3750352,8.00014321 C15.6504209,8.00014321 15.0622709,7.40324371 15.0622709,6.66714403 C15.0622709,5.93104436 15.6504209,5.33357202 16.3750352,5.33357202 M16.3750352,14.6668576 C15.7400814,14.6668576 15.1570065,14.8965665 14.7030652,15.2780781 L10.1974866,12.5318821 C10.2318846,12.3600301 10.2499295,12.1818768 10.2499295,12.0002864 C10.2499295,11.8181232 10.2318846,11.6405428 10.1974866,11.4686907 L14.7030652,8.72249472 C15.1570065,9.1040063 15.7400814,9.33371523 16.3750352,9.33371523 C17.8248278,9.33371523 19,8.13991622 19,6.66714403 C19,5.19437184 17.8248278,4 16.3750352,4 C14.9252427,4 13.7500705,5.19437184 13.7500705,6.66714403 C13.7500705,6.84873438 13.7681154,7.02688769 13.8025134,7.19873975 L9.29693479,9.94436289 C8.84299352,9.56285131 8.25991864,9.33371523 7.62496476,9.33371523 C6.17517219,9.33371523 5,10.5275142 5,12.0002864 C5,13.4730586 6.17517219,14.6668576 7.62496476,14.6668576 C8.25991864,14.6668576 8.84299352,14.4371487 9.29693479,14.0556371 L13.8025134,16.8018331 C13.7681154,16.9736852 13.7500705,17.1518385 13.7500705,17.3334288 C13.7500705,18.806201 14.9252427,20 16.3750352,20 C17.8248278,20 19,18.806201 19,17.3334288 C19,15.8612295 17.8248278,14.6668576 16.3750352,14.6668576" id="Share"></path>
                        </g>
                    </g>
                </g>
            </g>
        </g>
    </g>
</svg>