<?xml version="1.0" encoding="UTF-8"?>
<svg width="24px" height="24px" viewBox="0 0 24 24" version="1.1" xmlns="http://www.w3.org/2000/svg" xmlns:xlink="http://www.w3.org/1999/xlink">
    <title>A0412024-545D-4BBB-BACC-DC0FCF74FE2A</title>
    <defs>
        <path d="M16,1.539 C15.412,1.8 14.779,1.976 14.115,2.056 C14.793,1.65 15.313,1.006 15.559,0.24 C14.924,0.616 14.221,0.889 13.474,1.036 C12.875,0.398 12.021,0 11.078,0 C9.265,0 7.795,1.469 7.795,3.282 C7.795,3.539 7.824,3.79 7.88,4.03 C5.152,3.893 2.732,2.587 1.114,0.601 C0.832,1.085 0.67,1.649 0.67,2.251 C0.67,3.39 1.249,4.394 2.13,4.983 C1.592,4.966 1.086,4.818 0.643,4.572 L0.643,4.614 C0.643,6.204 1.775,7.531 3.275,7.832 C3.001,7.908 2.711,7.948 2.411,7.948 C2.199,7.948 1.994,7.927 1.794,7.889 C2.211,9.193 3.424,10.142 4.859,10.168 C3.736,11.049 2.322,11.573 0.783,11.573 C0.519,11.573 0.258,11.558 0,11.528 C1.453,12.459 3.178,13.002 5.032,13.002 C11.07,13.002 14.372,8 14.372,3.663 C14.372,3.52 14.369,3.379 14.362,3.238 C15.004,2.775 15.561,2.197 16,1.539" id="path-1"></path>
    </defs>
    <g id="Pages" stroke="none" stroke-width="1" fill="none" fill-rule="evenodd">
        <g id="Flex-List-Copy" transform="translate(-1033.000000, -481.000000)">
            <rect fill="#FFFFFF" x="0" y="0" width="1440" height="5937.97848"></rect>
            <g id="Group-45" transform="translate(359.000000, 447.000000)">
                <g id="Group-9" transform="translate(0.000000, 25.000000)">
                    <g id="Group-8" transform="translate(565.000000, 1.000000)">
                        <g id="Group-5" transform="translate(48.000000, 0.000000)">
                            <g id="Group-24" transform="translate(53.000000, 0.000000)">
                                <circle id="Oval" fill="#D8F2F9" cx="20" cy="20" r="20"></circle>
                                <g id="Icon" transform="translate(12.000000, 13.000000)">
                                    <mask id="mask-2" fill="white">
                                        <use xlink:href="#path-1"></use>
                                    </mask>
                                    <use id="Fill-267" fill="#009EB5" xlink:href="#path-1"></use>
                                </g>
                            </g>
                        </g>
                    </g>
                </g>
            </g>
        </g>
    </g>
</svg>